<?xml version="1.0" encoding="utf-8"?>
<!-- Generator: Adobe Illustrator 26.5.0, SVG Export Plug-In . SVG Version: 6.00 Build 0)  -->
<svg version="1.1" id="Layer_1" xmlns="http://www.w3.org/2000/svg" xmlns:xlink="http://www.w3.org/1999/xlink" x="0px" y="0px"
	 viewBox="0 0 24 24" enable-background="new 0 0 24 24" xml:space="preserve">
<g>
	<path fill="#207A89" d="M15.8,14.3H15L14.7,14c2.3-2.7,2-6.8-0.7-9.2s-6.8-2-9.2,0.7s-2,6.8,0.7,9.2c2.4,2.1,6,2.1,8.5,0l0.3,0.3
		v0.8l5,5l1.5-1.5L15.8,14.3z M9.8,14.3c-2.5,0-4.5-2-4.5-4.5s2-4.5,4.5-4.5s4.5,2,4.5,4.5S12.3,14.3,9.8,14.3z"/>
	<path fill="#207A89" d="M12.3,10.3h-2v2h-1v-2h-2v-1h2v-2h1v2h2V10.3z"/>
</g>
</svg>
