<?xml version="1.0" encoding="UTF-8"?>
<svg id="Capa_1" data-name="Capa 1" xmlns="http://www.w3.org/2000/svg" version="1.1" viewBox="0 0 500 503.2">
  <defs>
    <style>
      .cls-1 {
        font-family: BerlinSansFB-Reg, 'Berlin Sans FB';
        font-size: 62.5px;
      }

      .cls-1, .cls-2, .cls-3 {
        isolation: isolate;
      }

      .cls-1, .cls-3, .cls-4 {
        fill: #fff;
      }

      .cls-3 {
        font-family: BerlinSansFB-Bold, 'Berlin Sans FB';
        font-size: 23.8px;
        font-weight: 700;
      }

      .cls-5 {
        fill: #30b3ee;
      }

      .cls-5, .cls-4 {
        stroke-width: 0px;
      }
    </style>
  </defs>
  <path class="cls-5" d="M108.3,0h283.3c59.8,0,108.3,47.9,108.3,107.1v288.8c0,59.1-48.5,107.1-108.3,107.1H108.3c-59.8,0-108.3-47.9-108.3-107.1V107.1C0,47.9,48.5,0,108.3,0Z"/>
  <g class="cls-2">
    <g class="cls-2">
      <text class="cls-1" transform="translate(46.7 298.4)"><tspan x="0" y="0">GALIPÁN</tspan></text>
    </g>
  </g>
  <g class="cls-2">
    <g class="cls-2">
      <text class="cls-3" transform="translate(327.6 298.4)"><tspan x="0" y="0">APP</tspan></text>
    </g>
  </g>
  <circle class="cls-4" cx="315.4" cy="294.7" r="4"/>
  <g>
    <path class="cls-4" d="M361.2,242.7c-1.3-.7-2.5-1.5-3.6-2.5-1.2-1-2.4-2.1-3.9-3.6,2.2,2.1,3.5,3.2,4.4,3.9s1.5,1.2,2.7,2c.5.2.9.5,1.2.6h.3c5.1,2.2,7.8,4.1,8.5,4.8.6.7,2.6,2.2,4.4,3.8,1.9,1.1,2.7,1.6,4,2.5,1.7,1.1,3.8,2.6,5.8,3.8.8.5,1.6,1,2.5,1.4.8.4,1.6.9,2.5,1.3,1.5.7,3,1.4,4.5,2,.8.3,1.6.6,2.4.9s1.5.5,2.3.8c1.5.5,3.1,1,4.7,1.5s3.3.9,5.1,1.4c1.2.3,1.8.4,1.9.3,0,0-.3-.2-1-.5-1.3-.5-3.8-1.4-5.8-2.2,1.8.6,3.4,1,4.8,1.4,1.5.5,2.9.8,4.5,1.1-1-.3-1.6-.6-2.4-.8,1.4.3,2.8.6,4.2.8,1.5.2,2.9.4,4.4.5,1.6,0,3.1,0,4.7-.2.4,0,.8,0,1.2-.2l1.1-.3,1.1-.3,1-.3c-.4.1-.8.2-1.1.3-.4,0-.7.2-1,.2-.6.1-1.1.2-1.5.2h-3.8c-.5,0-1.2,0-2.1-.1-.8-.1-1.8-.2-3-.4.8,0,1.5.1,2.1.2h1.8c-4.2-.6-7.2-1.4-2.9-.9,1.2.2,2.4.4,3.7.3h1.9c.6,0,1.3-.2,1.9-.2,2.5-.4,4.7-1.2,6.5-1.4.2,0,.9-.1,1.8-.3h7.2c1.4.2,2.7.3,3.8.4,2.3.3,4.3.6,6.6,1-1.2-.3-2.3-.6-3.4-.9-1.2-.3-2.3-.6-3.5-.8-1.2-.2-2.4-.5-3.7-.7-1.2-.1-2.5-.3-3.9-.4,1.4,0,2.8,0,4.4.2.8,0,1.7.2,2.6.3s2,.2,3.1.4c-1.3-.3-2.4-.4-3.4-.6s-1.9-.3-2.7-.4c-.8,0-1.6-.1-2.4-.2h-2.5c1.1-.1,2.1,0,3.1,0s1.9,0,2.7.2c1.7.2,3.2.3,4.7.6,0,0-.7-.3.2-.2,1.1.2,3.5.6,4.9.9v-.5c1.7.3,3.2.7,4.7,1.1s3.1.7,4.5,1.1c3,.8,5.8,1.6,8.3,2.3.2-.2-1.9-.9-4.6-1.8-1.3-.4-2.8-.9-4.2-1.4-1.4-.4-2.8-.8-3.9-1.1-1.1-.3-2.3-.7-3.6-1.1-1.3-.4-2.6-.7-3.9-1-1.4-.3-2.7-.7-4.2-.9-.7-.1-1.4-.2-2.2-.4-.7-.1-1.4-.3-2.2-.3.1,0,.3-.2.5-.3-1.3,0-2.6-.1-3.8-.2-1.3,0-2.5,0-3.7.2-2.5.3-4.8,1-6.7,1.5-.9.2-1.7.4-2.5.4h-3.5c-.4,0-.8-.2-1.1-.2-1.1-.2-.8-.3,1-.2.5,0,.6,0,1-.2h-.9c-.3,0-.7,0-1-.1-.7,0-1.3-.2-1.9-.2-1.3-.2-2.6-.5-3.9-.8s-2.7-.7-4.1-1.1c-.7-.2-1.4-.4-2.2-.6-.7-.2-1.5-.5-2.3-.8,2.3.7,3.5.9,5.5,1.4-3.2-.9-4.9-1.5-6.8-2.1-3.5-1.2-5.4-1.9-6.7-2.6-1.2-.6-1.7-.9-2-1.2,0,0,.2,0,0-.1-.9-.6-1.3-1-3-2.1-1.3-.8-4.3-2.7-4.9-3.1-2.6-2-4.5-3.4-6.4-4.8-1.7-1.1-3.5-2.2-5.9-3.5-2.8-1.7-5.8-3.3-8.9-4.5h.3c-1-.4-2.3-1.4-3.5-2.5-.3-.2-.6-.3-1.1-.6-2.1-2.2-3.6-4.1-5.3-6.2,1.2,1.4,2,2.2,2.9,3.2-.5-.8-2.1-2.6-5.3-6.6-.5-.5-.7-.5-1.4-1.3-.8-.9-2.1-2.6-3.3-4.1-.2-.3-.9-1.2-1.5-2.1,1.2,1.5,2.2,2.7,3.6,4.5-2.1-2.9-4.2-5.8-5.1-7.2-2.4-3.5-4.4-6.4-7-9.5l.2.2c-.3-.2-.5-.3-1-.7-1.6-1.8-2.9-3-4.2-4.2l.4.3c-2.4-1.8-5.1-3.6-8-5l-2-.9-2.1.8c-1.2.5-2.3.8-3.4,1.3-3.8,1.5-7.1,3.4-9.5,4.9-2.6,1.8-3.9,2.7-5.3,3.3-1.2.5-1.7.7-1.9.9-.3.2-.4.2-1.1.5-.5.2-.9.3-1.3.4-.5.1-.9.3-1.3.4-1,.2-2,.5-3.1.8-1.9.1-6.1,1.2-9.4,1.8,1.4,0,2.7-.1,4-.2-.8.2-1.5.4-2.3.5-1.6.3-3.1.5-4.8.8-1.7.3-3.5.6-5.5.8h2.3c2.6-.5,5.3-1,8.3-1.6-1.7.6,1.3.2-4.4,1.6-1,.1-2,.3-2.9.4-.9.1-1.8.2-2.8.3-5.4,1.1-11.1,1.8-15.8,2-.5,0-3.3.3-5.6.5,2.2,0,4.7,0,5.6.1,1,.1.1.4.7.5h3.3c7.2-.8,8.1-.8,8.3-.6,3.3-.4,6.3-.9,9.5-1.5,3.1-.6,6.3-1.1,9.7-1.7-2.8.6-4.2.9-6,1.2.5.2,8.6-1.5,12.1-2.1,2-.4,3.9-.9,5.9-1.7s3.9-1.8,5.8-3c0,0-.2.2-.4.4-.3.3-.8.7-1,.9-.4.4-1.1.9-2.1,1.5-1.1.6-2.6,1.3-4.7,2-2.7.8-5,1.1-8,1.7-7.1,1.4-11,2-12.9,2.2-2.6.5-5.9,1.2-6.9,1.3-3.6.4-7.2.7-6.9.3,3-.3,5.2-.6,8-1-.1,0-.2-.1-.3-.2-4.7.8-9.6,1.2-13.7,1.7.6,0,1.2.1,1.8.2-5.7.6-8.9.8-10.9.7-1.2,0,1-.3,2.6-.4,1.5-.1,3.9-.4,6.5-.6-5.9.4-12.4.8-14.9.7-.4,0-2.8.1-4.3.2-1.4,0-2.9.1-4.4.3-1.4.2-2.7.3-3.7.5-3.2.4-6.7,1-10.5,1.6-2.8.4-5.5.8-8.2.9-1.4,0-2.7.1-3.9,0-.6,0-1.2,0-1.9-.2h-.5c-.2,0-.5-.1-.7-.1h-1.4,2.6c.7.2,1.3.3,2,.3h4.4c3.1-.2,6.2-.6,9.3-1.1-2.8.5-5,.9-7,1.2s-3.8.4-5.4.5c-1.3,0-2.3-.1-3.6-.3-.6-.1-1.6-.2-2.3-.1-.7,0-1.5,0-2.1.1-2.8.3-5,.9-7.2,1,1.4-.1,2.8-.4,4.4-.8,1.6-.4,3.4-.8,5.4-.8-1.8,0-3.2.2-3.7.2s-.1-.2,1.9-.5c1.7-.2,2.4-.2,2.1-.3-.4,0-1.5-.1-2.9,0-2.1.2-4.1.7-5.9.9-.9,0-1.8.1-2.7.1s-.9,0-1.3-.1h-.7c-.2-.1-.5-.2-.7-.2h-4.8c-.5,0-1,.1-1.5.2-2,.3-3.7.7-4.6.9.6-.2,1.2-.4,1.8-.6.6-.2,1.1-.3,1.5-.4-4,.6-7.1,1.7-10.4,3-.7.3-1.6.8-2.6,1.3-1,.4-1.9.8-2.8,1.2-.9.4-1.8.8-3.2,1.3,1.7-.4,2.4-.6,1.8-.3-.6.3-2.6,1.3-6,2.3.5,0,.9-.2,1.4-.2.5-.1,1-.2,1.5-.3,3.5-1.3,7.2-3.2,11.4-4.9h.4c-2.7,1.1-5.2,2.3-7.7,3.5,1.2-.4,2.3-.7,3.3-1.1,3.9-1.8,4.6-1.9,6.7-2.6,3.2-1.3,6.6-2.4,11.2-2.2-3.3,0-6.2.8-8.8,1.6,1.1-.3,2.6-.6,4.3-.9,1.7-.2,3.5-.4,5.4-.2.4,0,1,0,1.3.1.4,0,.7.1,1.1.2.6,0,1.3.2,1.8.2h2.5c1.5-.2,3.7-.7,4.6-.9,1.3-.2,1.7-.2,1.6-.2s-.7.2-1.4.3c-1.4.3-3,.7-2.3.6.9-.1,1-.1,1.2-.2,2.3-.4,4.1-.6,5.6-.5.4,0,.7,0,1.1.1.3,0,.5.1.8.2.5,0,.9.2,1.3.2,1.7.3,3.5.4,7.8,0,.5,0-.3.1-.3.2,0,.3,3.3.2,7.5-.3,3.6-.4,4.7-.7,2.6-.1.9-.2,1.9-.3,2.8-.5-1.7.5,6.1-.5,1.9.4-4.2.6-6.4.9-9.4,1.2-1.1.1-1.9.2-3.2.3-1.3,0-3,.3-5.9.5-.7,0-1.6,0-3.1-.2-.7,0-1.6-.1-2.6-.2-1-.2-2.2-.2-3.7,0-1.1.2-2.1.5-4.1,1-1,0-1.6,0-2.1.1-1,.2-2,.3-3,.3,1.1,0,1.3.3,3.6,0,1.6-.2,2.9-.5,4-.6,1.1-.2,2-.2,2.7-.2s1.4,0,1.9.2c.6.1,1.1.3,1.7.4,1.2.2,1.4.3,2.4.5,1.8-.1,2.7-.2,3.7-.4,1.2-.1,2.6-.3,3.9-.5.5,0,1-.1,1.5-.2-1.5.3-3,.7-4.6.9.5,0,2.1-.1,3.2-.2s1.9-.2.5.1c-.4,0,.3,0,.7,0,7.1-1,4.4-.4,5.1-.3,2-.5,3.2-.8,5.1-1.2,3.9-.3,5.3-.2,4.4.2-2.8.5-6.3,1.1-7.3,1.3-4.2,1-7.9,1.9-11.8,2.5-.6,0-.9.2-.4.2,1.7,0,3.5,0,5.3-.2,1.8-.1,3.6-.3,5.5-.5.7,0,2.9-.4,4-.6,2.6-.5,4.3-.7,5.6-.9.7,0,1.2-.1,1.7-.2h6.1c-1.3-.3,5.8-.7,11.3-1.2-1.7,0-3.2-.1-4.7-.2,10.4-.9,18.6-1.4,26.9-2.8,2.2-.5,4.2-1,6.6-1.6s5.1-1.2,8.8-1.9h-.3c.7-.2,1.4-.5,1.8-.6,2.1-.5,4.4-.9,6.6-1.6,2.2-.7,4.4-1.5,6.5-2.7,2.8-1.4,4-2.2,4.9-2.8.9-.5,1.5-.8,2.8-1.4,1.2-.6,3.4-1.8,5.4-2.7,1.3-.7,2.4-1.1,3.3-1.5h-3.2c.6.2,1.1.5,1.5.7.5.3.9.6,1.2.9-.5-.3-1-.6-1.5-.8s-1-.5-1.4-.6h3.4c-.7.4-1.2.6-1.6.8-1.2.6-1.6.9-2.3,1.3-3.1,1.5-5.5,3-7.8,4.5-2.3,1.4-4.6,2.6-6.6,3.3-2.9,1.3-5.4,2-7.5,2.6,3.7-.5,6.1-1.2,8.3-2.1,2.2-.9,4.4-2.2,7.2-4.1l-.2-.3c2.2-1.5,4.1-2.6,5.8-3.3,1.6-.8,2.7-1.1,2.9-1.1.3,0,1-.2,2.2-.6h-4.1c1.2.6,3.3,1.8,5.3,3.6,1.6,1.2,3.2,2.7,4.9,4.5,1.7,1.8,3.5,4,5.5,6.8,1.2,1.6,2.7,3.5,3.8,5,1,.9-1.7-2.8-3.4-5.3-2.1-3-3.2-4.5-2.9-4.4.3.1-.7-1.3-1.1-2-1.5-1.7-2.8-3.1-4.2-4.3-1.4-1.3-2.8-2.4-4.4-3.5-.6-.5-1.1-1-1.5-1.3.8.4,1.5.9,2.1,1.3.6.5,1.2.9,1.8,1.3.5.5,1,.9,1.5,1.3.5.4.9.9,1.4,1.3,2.6,2.5,4.4,4.7,5.9,6.7,1.5,1.9,2.7,3.7,4,5.8.5.8,1,1.6,2,3.1.9,1,1.7,1.8,2,2.2.5.4,1.7,1.8,3.7,4.2-.2-.6-.5-1.1-.7-1.6,3.7,4.3,5.5,6.3,5.5,6.6s-.2.2-.3.4c-2-2.2-3.3-3.8-4.6-5.5,1,1.3,2.1,2.7,3.4,4.2s2.7,3.2,4.7,5.2c-2.5-2.2-4.5-4.6-6.1-6.3-1.5-1.8-2.6-3-2.8-3.1-.1,0-.5-.4-.9-.8-.2-.2-.4-.5-.7-.7-.3-.3-.6-.7-.9-1-1.2-1.4-2.6-3.3-4-5,.7,1.1,1.2,1.9,2.1,3.3.7.8,1.4,1.7,2.2,2.6.8.8,1.6,1.8,2.5,2.8,1.8,2,3.9,4.5,6.9,7.5,1.2,1.2,2.5,2.3,3.5,3.1,1.1.8,2.1,1.4,3,1.8M373.7,246.7c3,1.8,5.5,3.7,8,5.4-2.8-1.9-5.5-3.8-7.8-5.3-1.8-1.2-4.6-2.7-4.6-2.9,2.9,1.6,3.9,2.4,4.4,2.8M347.1,218.5c-2.8-4-3.8-5.7-1.8-3.2,1.8,2.2,2.8,3.9,4.4,6.3-1.1-1.4-2.1-2.8-3.1-4.2,0,.2.2.5.2.7,3,4.2,1.3,2.2,2.6,4.2-.3-.3-.6-.7-.9-1-1.3-1.8-2.6-3.7-4.2-6,1.1,1.2,1.9,2.2,2.7,3.1M336.3,202.4c2.2,2.1,4.1,4.2,6.5,7.1,1.4,1.9,1.2,1.8-.7-.4-1.7-2.2-3.8-4.8-6.2-7.1,3.1,3.2,4.6,5.3,5.3,6.3.7,1,.5,1.1-.2.5-3-3.9-5.8-7.3-9.4-10.2,1,.7,1.8,1.3,2.6,2,.8.7,1.5,1.3,2.2,1.9-.6-.6-1.3-1.2-2-1.9-.8-.7-1.6-1.5-2.9-2.4,3,2-5.4-4.6,1.9.7,2.9,2.5,4.1,4.1,4.5,4.6s-.2,0-1.6-1.1M261.5,218.5c2,0,3.9,0,6-.2,2.2-.3,4.6-.6,7.5-1.1h-1.9c1.5-.2,4-.6,6.1-.9,2.2-.3,4.1-.6,4.3-.6.6,0,.7.3,1.1.5-2,.5-3.9.9-5.6,1.3-1.7.4-3.3.7-4.6,1-2.7.6-4.7.9-5.8,1.3-.9.3-4.2.7-8.7,1.1-2.2,0-4.8,0,.4-.7-2.9.1-5.3.2-8,.3,1.8-.3.2-.4,5.6-1-1.6-.1-1.9-.3,3.5-.9M311.3,207.4c-3.1,1.9-5.9,3.1-9.2,4.1,1.9-.6,3.9-1.4,5.9-2.4s3.8-2.3,5.6-3.4c1.8-1.2,3.6-2.3,5.5-3.2,1.9-1,3.8-1.7,5.8-2.5h-1.4c.7.4,1.5.7,2.2,1.1-.9-.5-1.6-.8-2.2-1.1h1.5c-1.5.7-2.7,1.2-3.9,1.8-3.4,1.6-5.2,2.9-5.6,3.3-.4.4.7-.3,3.3-1.5,2.1-1,3.6-1.5,6.5-2.6h-2.2c.5.2,1,.5,1.6.8s1.2.8,1.9,1.2c.7.5,1.8,1.3,2.2,1.8,1.6,1.5,3,3.1,4.3,4.8-1.1-1.3-3-3.2-4.9-4.8s-3.8-2.7-4.5-3.1l-.8-.4h2.4c-2,.8-4,1.7-5.9,2.7s-3.7,2.1-5.6,3.3c.8-.6,1.6-1.1,2.3-1.7-3,1.6-4.7,2.5-5.3,2.7-.6.2-.2,0,.6-.7M293.9,206.3c1.4-.2,2.5-.4,3.4-.5.5,0,.9-.1,1.3-.2.4,0,.8-.2,1.2-.2,3.4-.9,5.9-2.2,8.9-3.9,1-.5,2.6-1.6,4.6-2.8s4.3-2.3,6.4-3.2c1-.3,2-.6,3-.9l1.8-.5,1,.6,2,1.2c.6.4,1.2.9,1.8,1.3-1.5-1-2.9-1.6-4-2.1l-1.2-.6-1.3.5c-1.5.6-2.6,1.1-3.5,1.4-.9.3-1.6.6-2.3.9-.9.3-2,.8-3.6,1.6s-3.6,2-5.9,3.4c-2.1,1.2-4.2,2.1-6.4,2.8-1.6.6-2.4.9-3.9,1.2-1.4.3-3.6.8-7.7,1.7,1.3-.6,2.6-1.1,4.3-1.8M181.2,220.2c3.5-1.2,6.4-1.7,8.9-1.8h1.8c.6,0,1.2.1,1.8.2.5,0,.9.2,1.3.2s.8.1,1.2.2c2.1.2,2.5.2.9.3h-1.6c-.3,0-.7,0-1-.1h-4.2c-1,0-1.8.1-2.2.1-2.5.2-4.4.5-6.5,1M363.4,237.9l1,.5h0c2.6.9,5.1,1.9,7.5,3.2.2.4.5.7.7,1.1-4-2.3-6.9-3.4-8.3-4.1h0c-.5-.3-.8-.5-.9-.6M348.4,223.8c-1.3-1.9-1.8-2.9-1.4-2.5.2.2.7.8,1.5,1.7s2,2.2,3.7,4c-1.4-1.1-2.6-2.2-3.8-3.2M395.9,255.5c.9.4,1.8.7,2.6,1,.9.3,1.8.6,2.9.9.9.3,3.7,1.2,3.9,1.3.9.4,1.9.8,1.4.7-.7,0-1.9-.5-3.7-1.1-.9-.3-2-.7-3.2-1.1-.6-.2-1.2-.5-1.9-.8-.7-.3-1.4-.6-2.1-.9M393.2,253.3c.6.5,1.2.9,1.9,1.4-4.3-2.1-6-3.4-6.5-3.9-.2-.2,0,0,.8.3.8.4,2,1.2,3.8,2.2M383.6,253.3c-2.6-1.8-4.6-3.2-6.2-4.3-.8-.5-1.3-1-.9-.8.3.1,1.9,1.2,2.9,1.8,3.3,2.3,3.6,2.5,4.3,3.3M350.9,226.9c2,2.5,3.1,3.8,3.3,4.2s-.4-.2-1.7-1.6c-.5-.5-1.3-1.5-1.8-2-.5-.6-1.1-1.4-1-1.3.3.2,1,1,1.3,1.2.2.1-.1-.3-.2-.5M264.6,212.3c3.7-.4,5.6-.6,6.7-.8,1.1-.1,1.4,0,1.9,0-5.6.8-7.1.7-8.6.7M298.4,213.3c.8-.2,1.4-.3,2-.4.6-.2,1.1-.3,1.5-.4.9-.2,1.6-.4,2.2-.6,1.2-.4,2-.6,3.6-1.1-.8.4-1.5.7-2.1.9s-1.2.4-1.6.6c-1,.3-1.7.5-2.2.6-1.2.3-1.9.3-3.3.5M243.2,219.7c1.2-.2,1.9-.4,2.8-.6,3.8-.1,5.2-.1,3.3.1-.7,0-3.1.2-6.1.5M284.6,209.9c2.8-.5,4.6-.8,7.2-1.3-1.8.4-2.7.7-3.7.9-5.5,1.2-4.1.7-3.5.4M355.6,232.3c1,1,2.1,2,3.2,2.9.4.4.8.8,1.2,1.2-1.2-.9-2.3-1.9-3.4-2.9-.4-.4-.7-.8-1.1-1.2M297.9,206.8c-.5,0-.7,0-1.2-.1,2.1-.3,3.3-.6,3.5-.6s0,0-.4.2-1,.3-1.9.6M367.7,236.3c-.9-.4-1.7-.8-2.2-1h.3-.1.1-.3c.1,0,1.2.3,1.5.4,1,.4,1.9.9,2.8,1.3-.5-.2-1.1-.5-2.1-.8M341.8,210.3v.3c-.4-.4-.7-.8-1-1.3-.1-.3-.3-.6-.4-.9.5.6,1,1.2,1.5,1.8M353.8,226c.6.8,1.2,1.4,1.8,2.1q0,.1,0,0c-.5-.6-1.1-1.3-1.6-1.9-.1-.1,0-.1-.1-.2M453.4,263.7c.6.2,1.2.4,1.8.6-.4,0-.8-.2-1.1-.2l-2.2-.7c.5.1,1,.2,1.5.3M355.5,228.7c-.1,0-.3-.2-.5-.3-.4-.4-1-1.2-1.1-1.2v-.2c.5.6,1,1.1,1.5,1.7"/>
    <path class="cls-4" d="M334.2,198.2c-.5-.5-1.2-1-2-1.6-.7-.6-1.6-1.1-2.2-1.6-1.3-.9-2.2-1.3-.8-.7,1.4.7,4.1,2.3,6.2,4.2,2.6,2.5,5,5.5,3.4,4.1l.2.2c-1.6-1.7-3.3-3.3-5.2-4.9l.4.3h0Z"/>
    <path class="cls-4" d="M425.6,267.7l2.1-.5,1.9-.6,1.7-.4c.5-.1,1.1-.2,1.6-.3.3,0,.5-.1.8-.1h.8l1.7-.2c1.2,0,2.3,0,3.5.1,2.9.4,4.4.7,3.9.7-1.5-.2-3-.4-4.4-.5-1.4,0-2.9-.2-4.2,0-1.4,0-2.7.3-4,.6-.7.2-1.3.3-2.1.6l-1.2.3-1.3.3h-.8"/>
    <path class="cls-4" d="M218.1,217.3c3.2-.3,6.4-.9,9.8-1.4-.8.2-1.5.5-3,.8-1.4.3-3.5.7-6.8,1.1v-.4h0Z"/>
    <path class="cls-4" d="M367.6,247c-1.3-.8-2.3-1.4-2.4-1.5-.1-.2.6,0,2.8,1.1.7.5,2,1.3,2.4,1.7.4.3,0,.1-2.7-1.2"/>
    <path class="cls-4" d="M198.4,224.6c2,0,3.7-.3,3.8-.3,0,0-.2.1-1.1.3-.9.2-2.4.5-4.8.4.8-.1,1.4-.3,2.1-.5"/>
    <path class="cls-4" d="M246.8,223.2l8.8-.6c-2.1.2-3.4.4-5,.5-1.3,0-3,.1-4.5.2.2,0,.5,0,.8-.1"/>
    <path class="cls-4" d="M263.4,213.4c-1.8.2-3.1.3-4.3.4-.8,0-1.6,0-2.4.1.8,0,1.5-.2,2.5-.3.1,0,1.3,0,4.3-.2"/>
    <path class="cls-4" d="M215.7,216.6l-1.1.3h-1.7l.4-.2h2.4"/>
    <path class="cls-4" d="M294.2,215.4l4.9-1c-1.4.4-2.3.6-3.5,1h-1.4"/>
    <path class="cls-4" d="M419.8,268.2v.3c-.6,0-1,0-1.5-.1-.3,0-.9-.2-.8-.2h2.3"/>
    <path class="cls-4" d="M272.1,209.8h-1.4l1.4-.2c.7,0,1.3,0,1.9-.1-.6.1-1.3.2-1.9.3"/>
    <path class="cls-4" d="M357.3,242.1c-.2-.2-.4-.5-.5-.6,0,0,.2.2.6.4.3.2.8.5,1.1.8.2.2.4.4.6.6-.6-.4-1.2-.8-1.8-1.2"/>
    <path class="cls-4" d="M431.3,266.7c-.7.2-1.2.3-2,.5s-1.4.4-2.3.6h-.4c.4-.1.9-.2,1.3-.3l1.2-.3c.8-.2,1.4-.4,2.1-.6h.2"/>
    <path class="cls-4" d="M350.5,216.8c.2.4.4.7.6,1.1-.4-.5-.7-.9-1-1.4-.1-.3-.3-.6-.5-.9l.9,1.2"/>
  </g>
  <g id="Ojo_restado" data-name="Ojo restado">
    <path class="cls-4" d="M138.6,206.9c-.6-.5-1.2-.3-1.8-.5.5-.2,1-.3,1.4-.7,0,0,.1-.1.1-.2,0,0-.2-.1-.3-.1-.8-.2-1.6-.1-2.4,0,.6-.1.8-.6,1.2-.9v-.3c0-.1-.2-.1-.3,0-.9.1-1.8,0-2.6.5-.6.3-1.2.3-1.8.4h-.2s0-.1.1-.1c.7-.3,1.4-.6,1.9-1.1,0,0,.2-.2,0-.3h0c-1.4,0-2.5.6-3.7,1h-.4l.2-.2c.1-.1.3-.2.2-.4s-.3,0-.4,0c-.8.3-1.6.6-2.2,1.2-.4.4-1.1.4-1.7.6-1.3.4-2.8.6-4.2.9-1.8.4-3.4,1.3-4.7,2.5-2.1,1.8-4.6,2.9-8.1,2.4-1.5-.2-2.2.2-2.1,1.5h0c0,.1-.2.2-.2.2v.2c0,0,0,.1,0,.2,0,0,0,.2,0,.2h.2v-.2h0s.2,0,.4-.1c0,0,.2,0,.3-.2.4,0,.7.1.8.4,0,.3-.2.3-.4.4-1.5.9-3,1.8-4.7,2.7-2.3,1.2-3.2,3.2-4.4,5.2-.6,1-1.1,2-1.9,2.9-.5.6-1.1,1.2-1.6,1.8,0,.1,0,.3-.2.4.2,0,.3-.1.5-.2.2,0,.3-.2.6-.3-.7,1-1.4,1.9-2,2.9h.3c1.3-.6,1,.1.8.7,0,.4-.6,1,0,1.2s.9-.4,1.3-.8c0,0,.2-.2.3-.2,0,.2,0,.3,0,.4-.2.6-.3,1.1-.3,1.7h.3c.5-.4,1-.8,1.3-1.4,0,0,0-.1.2-.2v.2c0,.3,0,.9.3.9.5,0,.8-.4,1-.8.2-.5.4-1,.6-1.5,0,0,0-.1,0-.2,0,0,0,.1,0,.2,0,.3,0,.6.2.8,0,.2,0,.4.3.4s.3-.2.4-.3c0,0,0-.2,0-.3.5-2.1,2.6-2.9,4.1-4.1.7-.6,1.5-1.1,2.3-1.5.5-.3,1.2-.5,1.7-.8.7-.3,1.4-.7,2-1.1,0,0,0-.1,0-.1.8,0,1.3-.6,1.9-.7,1.1-.2,1.9-.7,2.9-1.2.3-.2.7-.4,1.2,0,.4.2.9.4,1.4.5.6,0,1,.5,1.4.9,1.6,1.5,3.3,2.8,4.8,4.3s.6.7.9,1.1c.4.6,1.4.8,2.1.3.2-.2.5-.2.8,0,.7.2,1.4.2,1.9-.3,0,0,.2,0,.4-.1.7-.1,1-.6,1.1-1.2,0-.4-.4-.5-.6-.6-1.1-.8-2.3-1.6-3.4-2.4-1.7-1.3-3.7-2.3-5.3-4-.8-.9-.4-1,.3-1.3.8-.3,1.7-.6,2.5-.8,1.2-.3,2.3-.8,3.3-1.4,1-.5,2-1.1,2.4-2.4.2-.7,1-1,1.4-1.6s1.3-.8,1.4-1.7c0-.3.2-.4.5-.4s.3,0,.3-.2c.2-1,1.2-.8,1.9-1,.1,0,.4,0,.3-.2,0-.2-.2-.3-.4-.3-.6-.2-1.2,0-1.8-.2,1-.3,2-.4,2.9-.9h.5ZM107.9,212.4v.2h-.5c0,0,0-.2,0-.2h.5c0,.1,0,0,0,0Z"/>
  </g>
</svg>