<?xml version="1.0" encoding="utf-8"?>
<!-- Generator: Adobe Illustrator 26.5.0, SVG Export Plug-In . SVG Version: 6.00 Build 0)  -->
<svg version="1.1" id="Capa_1" xmlns="http://www.w3.org/2000/svg" xmlns:xlink="http://www.w3.org/1999/xlink" x="0px" y="0px"
	 viewBox="0 0 63.8 68.4" style="enable-background:new 0 0 63.8 68.4;" xml:space="preserve">
<style type="text/css">
	.st0{fill:#F06624;}
	.st1{fill:#EE4038;}
	.st2{fill:#BE2131;}
	.st3{fill:#535555;}
	.st4{fill:#FEFDFD;}
</style>
<g>
	<path class="st0" d="M47.2,30.4c0.3,0,0.3-0.2,0.4-0.4c0.8-1.1,1.4-2.4,2.1-3.7c0.2-0.4,0.4-0.7,0.7-1.1c0.1-0.1,0.2-0.2,0.3-0.2
		c0.2,0,0.2,0.2,0.2,0.3c0,0.4,0,0.7-0.1,1.1c-0.6,3-2,5.5-4,7.7c-0.1,0.1-0.2,0.2-0.3,0.3v0.1c0.3,0,0.5-0.3,0.7-0.4
		c0.6-0.5,1.2-1,1.9-1.3c0.2-0.1,0.4-0.2,0.6,0c0.2,0.2,0.1,0.4,0,0.6c-0.4,1-1.2,1.8-2,2.5c-1.9,1.8-4.2,3.1-6.7,4
		c0.3,0.1,0.4,0,0.6,0c0.9-0.3,1.8-0.7,2.7-0.9c0.3-0.1,0.8-0.3,1,0.1c0.2,0.4-0.2,0.7-0.5,0.9c-1.2,1.1-2.7,1.6-4.3,2.1
		c-1.1,0.4-2.3,0.6-3.4,0.7c-0.1,0-0.3,0-0.4,0.1c-0.9,1.1-2.2,1.4-3.5,1.5c-1.8,0.2-3.5,0.2-5.2-0.4c-0.7-0.2-1.3-0.5-1.7-1.1
		c-0.2-0.2-0.4-0.2-0.6-0.2c-2.3-0.2-4.4-0.9-6.4-1.9c-0.6-0.3-1.2-0.7-1.7-1.3c-0.1-0.1-0.3-0.3-0.2-0.5c0.1-0.2,0.3-0.2,0.5-0.2
		c0.6,0,1.1,0.2,1.6,0.4c0.7,0.2,1.5,0.5,2.3,0.8c-0.3-0.3-0.6-0.4-0.9-0.5c-2.6-1.1-5-2.6-6.9-4.7c-0.3-0.4-0.7-0.8-0.9-1.2
		C13,33.3,12.7,33,13,32.7c0.3-0.3,0.6,0,0.8,0.2c0.6,0.4,1.1,0.8,1.6,1.2c0.2,0.1,0.3,0.3,0.5,0.3c0.1-0.3-0.2-0.4-0.3-0.5
		c-1.9-2.1-3.2-4.5-3.9-7.3c-0.1-0.4-0.1-0.8-0.1-1.2c0-0.2,0-0.4,0.2-0.5s0.3,0.1,0.4,0.3c0.3,0.4,0.5,0.9,0.8,1.3
		c0.6,1.2,1.2,2.4,2,3.5c0.2-0.3,0-0.5-0.1-0.7c-1.3-3-2.3-6-2.8-9.3c-0.2-1.8-0.4-3.7-0.2-5.6c0-0.4,0-0.9,0.4-1
		c0.4,0,0.4,0.5,0.5,0.9c0.7,2.8,1,5.7,1.6,8.6c1,4.3,2.6,8.5,4.8,12.3c0.2,0.3,0.3,0.6,0.6,0.8c0.1,0.1,0.2,0.1,0.3,0
		c0.1-0.1,0-0.2,0-0.3c-0.1-0.2-0.2-0.4-0.3-0.7c-2.3-4.4-3.5-9.1-3.3-14.2c0.1-1.8,0.4-3.6,1.2-5.3c0.3-0.6,0.7-1.2,1.2-1.7
		c0.8-0.7,1.7-0.7,2.5,0c0.7,0.6,1.2,1.4,1.6,2.3c1.5,3,2.4,6.1,3.4,9.3c0.5,1.5,0.5,2.8-0.3,4.3c-1.2,2.4-1.7,5.2-1.8,7.9
		c0,0.3-0.2,0.9,0.3,0.9c0.4,0,0.2-0.6,0.3-0.9c0.3-2.9,1-5.6,2.4-8.2c0.4-0.8,0.9-1.5,1.6-2c1.5-1.2,3.2-1.2,4.6,0.1
		c0.7,0.7,1.3,1.5,1.7,2.4c1.2,2.6,1.9,5.3,2.2,8.1c0,0.2-0.1,0.5,0.2,0.5s0.2-0.3,0.2-0.5c-0.1-3.4-0.8-6.6-2.3-9.6
		c-0.2-0.4-0.3-0.8-0.2-1.3c0.9-3.5,1.9-6.9,3.4-10.2c0.5-1.1,1.1-2.1,1.9-3c0.9-0.9,1.9-0.9,2.9,0c1.1,1.1,1.5,2.6,1.8,4.1
		c0.8,4,0.3,7.9-0.8,11.7c-0.6,1.9-1.3,3.7-2.2,5.4c-0.1,0.1-0.1,0.2-0.2,0.4c0,0.1-0.1,0.2,0,0.3s0.3,0,0.3-0.1
		c0.1-0.1,0.2-0.3,0.3-0.5c2.8-4.8,4.6-9.9,5.5-15.3c0.3-2,0.7-4.1,1.2-6.1c0.1-0.3,0.1-0.7,0.5-0.7c0.3,0,0.3,0.4,0.4,0.7
		c0.2,1.5,0.1,2.9,0,4.4C50.1,23.1,48.9,26.8,47.2,30.4z M46.2,34.9C46.1,35,46.1,35,46.2,34.9C46.1,35,46.2,35,46.2,34.9
		C46.2,35.1,46.2,35,46.2,34.9C46.2,35,46.2,35,46.2,34.9z"/>
	<path class="st1" d="M34.6,27.6c-2.5-2.4-4.7-2-6.8,0c-0.2-0.9-0.5-1.8-0.7-2.7c-0.7-2.8-1.6-5.5-2.7-8.2c-0.1-0.2-0.2-0.4-0.1-0.6
		c0.6-3.8,1.3-7.6,3-11.1c0.4-0.9,1-1.7,1.7-2.4c1.4-1.4,3.1-1.4,4.5,0c1.1,1,1.7,2.3,2.3,3.6c1.1,2.7,1.7,5.4,2.2,8.3
		c0,0.1,0,0.3,0.1,0.4c0.2,0.9,0.1,1.7-0.2,2.6c-1.3,3.2-2.2,6.5-3,9.9C34.6,27.4,34.6,27.5,34.6,27.6z"/>
	<path class="st2" d="M15.5,24.8c-0.2-0.9-0.4-1.9-0.5-2.8c-0.8-5.4-0.1-10.5,1.9-15.5c0.3-0.9,0.7-1.7,1.3-2.4
		c0.1-0.2,0.3-0.4,0.6-0.3c0.2,0.1,0.3,0.3,0.3,0.6c0.2,1,0,2.1,0,3.1c0,1.6,0,3.3,0.1,4.9c0,0.2,0,0.4-0.2,0.6
		c-1.1,0.5-1.8,1.5-2.2,2.7c-1,2.4-1.2,4.9-1.1,7.4c0,0.6,0.1,1.2,0.1,1.8C15.6,24.8,15.6,24.8,15.5,24.8z"/>
	<path class="st2" d="M46.6,24.9c0.2-2,0.2-3.9-0.1-5.9c-0.2-1.4-0.5-2.8-1.2-4.1c-0.5-0.8-1-1.6-1.9-2c-0.3-0.1-0.3-0.4-0.3-0.6
		c0.1-1.9,0.1-3.9,0.1-5.8c0-0.7-0.1-1.5,0-2.2c0-0.3,0.1-0.5,0.3-0.6c0.3-0.1,0.4,0.2,0.6,0.4c1,1.4,1.5,2.9,2,4.5
		c1.7,5.2,1.9,10.5,0.7,15.9C46.9,24.6,46.9,24.7,46.6,24.9z"/>
	<path class="st3" d="M21.4,54.8c1.3,0.4,2,1.2,2.1,2.4c0.1,1.1-0.5,2.1-1.6,2.6c-0.5,0.3-1.1,0.4-1.7,0.4c-1.1,0-2.2,0-3.3,0
		c-0.3,0-0.5-0.1-0.5-0.4c0-3.1,0-6.2,0-9.3c0-0.3,0.1-0.4,0.4-0.4c1.2,0,2.5,0,3.7,0c1.9,0.1,3,1.6,2.5,3.3
		C22.7,54,22.1,54.4,21.4,54.8z M17.8,57.1c0,0.5,0,1,0,1.4c0,0.2,0,0.4,0.3,0.4c0.8,0,1.6,0.1,2.4-0.1c0.9-0.2,1.5-0.8,1.5-1.6
		c0-0.9-0.5-1.5-1.4-1.7c-0.8-0.2-1.7-0.1-2.5-0.1c-0.3,0-0.3,0.2-0.3,0.3C17.8,56.2,17.8,56.7,17.8,57.1z M17.8,52.7
		c0,0.4,0,0.8,0,1.2c0,0.2,0.1,0.3,0.3,0.3c0.7,0,1.4,0,2.1,0c0.9-0.1,1.4-0.7,1.4-1.5c0-0.9-0.5-1.4-1.5-1.4c-0.6,0-1.2,0-1.8,0
		c-0.5,0-0.6,0.1-0.5,0.6C17.8,52,17.8,52.4,17.8,52.7z"/>
	<path class="st3" d="M33,55.1c0-1.5,0-3.1,0-4.6c0-0.4,0.1-0.5,0.5-0.5c1.2,0,2.5,0,3.7,0c1.9,0.1,3.1,1.7,2.6,3.5
		c-0.3,1-0.9,1.6-1.8,1.9c-0.5,0.1-0.4,0.3-0.2,0.7c0.8,1.2,1.5,2.4,2.3,3.6c0.2,0.3,0.2,0.4-0.2,0.5c-0.9,0.1-1.5-0.2-1.9-1
		c-0.5-1.1-1.2-2.1-1.8-3.1c-0.2-0.3-1.4-0.5-1.6-0.3c-0.1,0.1-0.1,0.3-0.1,0.4c0,1.2,0,2.3,0,3.5c0,0.3,0,0.5-0.5,0.5
		c-0.9,0-0.9,0-0.9-0.9C33,57.8,33,56.5,33,55.1z M34.5,52.8L34.5,52.8c0,0.4,0,0.9,0,1.3c0,0.2,0.1,0.3,0.3,0.3
		c0.7,0,1.5,0.1,2.2-0.1c0.9-0.2,1.4-0.7,1.4-1.5c0-0.9-0.4-1.4-1.4-1.6c-0.3-0.1-0.6-0.1-1-0.1c-0.5,0-1.2-0.2-1.5,0.1
		C34.3,51.6,34.5,52.3,34.5,52.8z"/>
	<path class="st3" d="M24.9,55.1c0-1.5,0-3.1,0-4.6c0-0.4,0.1-0.5,0.5-0.5c1.9,0,3.8,0,5.6,0c0.7,0,0.4,0.4,0.5,0.7
		c0,0.3,0.1,0.6-0.5,0.6c-1.4,0-2.8,0-4.3,0c-0.3,0-0.5,0.1-0.5,0.4c0,0.7,0,1.4,0,2.1c0,0.4,0.1,0.5,0.5,0.4c1.3,0,2.6,0,3.8,0
		c0.6,0,0.5,0.3,0.5,0.7s0,0.7-0.5,0.7c-1.2,0-2.5,0-3.7,0c-0.4,0-0.6,0.1-0.6,0.5c0,0.7,0,1.5,0,2.2c0,0.4,0.1,0.5,0.5,0.5
		c1.5,0,3,0,4.5,0c0.6,0,0.5,0.4,0.5,0.7c0,0.4,0,0.6-0.5,0.6c-1.9,0-3.9,0-5.8,0c-0.4,0-0.5-0.1-0.5-0.6
		C24.9,58.1,24.9,56.6,24.9,55.1z"/>
	<path class="st3" d="M49,50c0.5,0,1,0,1.5,0c0.3,0,0.4,0.2,0.5,0.4c0.8,1.3,1.6,2.6,2.5,4c0.4-0.6,0.7-1,1-1.5
		c0.5-0.8,1.1-1.6,1.5-2.4c0.2-0.4,0.5-0.5,0.9-0.5c0.3,0,0.7,0,1.1,0c-0.6,0.9-1.2,1.8-1.7,2.6c-0.6,0.9-1.2,1.9-1.9,2.8
		c-0.2,0.3-0.2,0.5-0.2,0.8c0,1.1,0,2.2,0,3.3c0,0.4-0.1,0.6-0.5,0.6c-0.9,0-0.9,0-0.9-0.9c0-0.4,0-0.8,0-1.2
		c0.2-1.6-0.3-2.9-1.2-4.1c-0.9-1.2-1.7-2.5-2.5-3.7C49.1,50.2,49,50.1,49,50z"/>
	<path class="st3" d="M43.7,55.7c0-1.3,0-2.6,0-4c0-0.4-0.1-0.5-0.5-0.5c-0.8,0-1.5,0-2.3,0c-0.4,0-0.5-0.1-0.5-0.5
		c0-0.2,0-0.3,0-0.5c0-0.3,0.1-0.3,0.3-0.3c2.4,0,4.8,0,7.2,0c0.3,0,0.4,0.1,0.4,0.4c0,0.2,0,0.3,0,0.5c0,0.3-0.1,0.4-0.4,0.4
		c-0.8,0-1.6,0-2.4,0c-0.4,0-0.5,0.1-0.5,0.5c0,2.6,0,5.2,0,7.7c0,0.5-0.1,0.6-0.6,0.6c-0.8,0-0.8,0-0.8-0.8
		C43.7,58.1,43.7,56.9,43.7,55.7z"/>
	<path class="st3" d="M5.8,55c0-1.5,0-3,0-4.5c0-0.4,0.1-0.6,0.5-0.5c0.1,0,0.2,0,0.3,0c0.4-0.1,0.5,0.1,0.5,0.5c0,2.6,0,5.1,0,7.7
		c0,0.5,0.1,0.7,0.6,0.6c1.2,0,2.4,0,3.6,0c0.6,0,0.4,0.4,0.4,0.7s0.1,0.6-0.4,0.6c-1.7,0-3.4,0-5.2,0c-0.4,0-0.5-0.2-0.5-0.5
		C5.8,58.1,5.8,56.6,5.8,55z"/>
	<path class="st3" d="M13.2,55.1c0-1.5,0-3.1,0-4.6c0-0.4,0.1-0.6,0.5-0.6c1.1,0,1.1,0,1.1,1c0,2.9,0,5.8,0,8.7
		c0,0.5-0.2,0.6-0.6,0.6c-0.9,0-0.9,0-0.9-1C13.2,57.9,13.2,56.5,13.2,55.1z"/>
	<path class="st0" d="M8.8,66.4c0.2-0.1,0.3-0.3,0.3-0.5c0.6-1.3,1.1-2.6,1.7-3.9c0.1-0.2,0.2-0.4,0.5-0.4s0.4,0.2,0.5,0.4
		c0.6,1.4,1.2,2.8,1.8,4.2c0.1,0.1,0.3,0.3,0,0.4c-0.2,0.1-0.5,0.1-0.7-0.1c0,0-0.1-0.1-0.1-0.2c-0.1-0.9-0.8-1.1-1.5-1
		c-0.2,0-0.3,0-0.5,0c-0.5-0.1-0.8,0.1-1,0.6C9.7,66.4,9.3,66.5,8.8,66.4c-0.9,0.1-1.7,0.1-2.6,0.1c-0.3,0-0.5-0.1-0.5-0.4
		c0-1.4,0-2.8,0-4.1c0-0.2,0-0.4,0.3-0.5c0.4,0,0.4,0.2,0.4,0.5c0,1.1,0,2.3,0,3.4C6.5,65.9,6.6,66,7,66s0.9,0,1.3,0
		C8.6,66,8.8,66,8.8,66.4z M11.3,62.5c-0.3,0.7-0.5,1.3-0.8,1.9c-0.1,0.2-0.1,0.3,0.2,0.3c0.4,0,0.8,0,1.1,0s0.4-0.1,0.2-0.3
		C11.8,63.9,11.6,63.3,11.3,62.5z"/>
	<path class="st0" d="M36.6,62.8c-0.4,0.9-0.7,1.7-1.1,2.6c-0.1,0.3-0.3,0.6-0.4,1c-0.1,0.2-0.1,0.3-0.4,0.3c-0.2,0-0.3-0.1-0.4-0.3
		c-0.4-1.1-0.9-2.1-1.3-3.2c0-0.1-0.1-0.2-0.2-0.4c0,0.3-0.1,0.4-0.1,0.5c0,1,0,2,0,3c0,0.3-0.1,0.4-0.3,0.4c-0.3,0-0.3-0.1-0.3-0.4
		c0-1.4,0-2.7,0-4.1c0-0.2-0.2-0.5,0.2-0.5c0.3,0,0.8-0.2,1,0.4c0.3,0.9,0.7,1.8,1.1,2.7c0.1,0.2,0.2,0.4,0.3,0.7
		c0.5-1.2,0.9-2.2,1.4-3.3c0.1-0.2,0.1-0.4,0.4-0.5c0.6-0.1,0.8,0,0.8,0.6c0,1.2,0,2.5,0,3.7c0,0.2,0.2,0.6-0.3,0.6
		s-0.3-0.4-0.3-0.6c0-1.1,0-2.1,0-3.2C36.7,62.8,36.7,62.8,36.6,62.8z"/>
	<path class="st2" d="M23.4,14.8c-0.5-0.7-1-1.2-1.6-1.7c-0.2-0.1-0.1-0.3-0.1-0.5c0.5-1.9,1.2-3.8,2.4-5.3c0.3-0.4,0.7-0.8,1.4-1
		C24.5,9,23.8,11.8,23.4,14.8z"/>
	<path class="st2" d="M39,14.7c-0.5-2.9-1.1-5.7-2.1-8.5c0.6,0.1,0.9,0.4,1.2,0.8c1.1,1.2,1.7,2.7,2.3,4.3c0,0.1,0,0.1,0,0.2
		c0.4,0.8,0.5,1.6-0.5,2.2C39.6,13.9,39.4,14.4,39,14.7z"/>
	<path class="st0" d="M20.4,62.8c0,1.1,0,2.2,0,3.3c0,0.2,0.1,0.6-0.4,0.5c-0.4,0-0.3-0.3-0.3-0.5c0-1.3,0-2.6,0-3.8
		c0-0.2-0.2-0.6,0.2-0.6c0.3-0.1,0.7-0.1,0.9,0.3c0.7,1.1,1.4,2.2,2.2,3.2c0.1,0.1,0.2,0.2,0.3,0.5c0-0.8,0-1.4,0-2.1
		c0-0.6,0-1.1,0-1.7c0-0.2,0.1-0.3,0.3-0.4c0.3,0,0.4,0.1,0.4,0.4c0,1.3,0,2.7,0,4c0,0.2,0.2,0.6-0.2,0.6c-0.3,0.1-0.7,0.1-0.9-0.3
		c-0.6-1-1.3-1.9-1.9-2.9c-0.1-0.2-0.3-0.4-0.4-0.6C20.5,62.8,20.5,62.8,20.4,62.8z"/>
	<path class="st0" d="M46.2,66.6c-0.6,0.2-0.9,0-1.2-0.5c-0.2-0.5-0.5-0.9-0.7-1.3c-0.2-0.3-0.4-0.4-0.7-0.3
		c-0.4,0.1-0.2,0.3-0.2,0.5c0,0.4,0,0.9,0,1.3c0,0.2-0.1,0.3-0.3,0.3s-0.3-0.1-0.3-0.3c0-1.4,0-2.9,0-4.3c0-0.3,0.1-0.4,0.4-0.4
		c0.6,0,1.1,0,1.7,0c0.7,0.1,1.2,0.4,1.3,1.1c0.1,0.7-0.1,1.2-0.8,1.5c-0.3,0.1-0.3,0.3-0.1,0.5C45.4,65.4,45.8,66,46.2,66.6z
		 M43.3,63.1c0,0.4-0.2,0.9,0.6,0.8c1-0.1,1.4-0.2,1.4-0.9c0-0.5-0.3-0.7-1.2-0.7C43.2,62.3,43.3,62.2,43.3,63.1z"/>
	<path class="st0" d="M38.5,64.1c0-0.7,0-1.3,0-2c0-0.3,0.1-0.5,0.4-0.5c0.8,0,1.6,0,2.4,0c0.2,0,0.4,0,0.4,0.3s-0.2,0.3-0.4,0.3
		c-0.6,0-1.1,0-1.7,0c-0.3,0-0.5,0.1-0.4,0.4c0,1.3-0.1,1,1,1.1c0.3,0,0.7,0,1,0s0.4,0.1,0.4,0.4s-0.1,0.3-0.4,0.3
		c-0.5,0-1.1,0-1.6,0c-0.3,0-0.4,0.1-0.4,0.4c0,1.2,0,1.2,1.1,1.2c0.4,0,0.8,0,1.2,0c0.3,0,0.4,0.1,0.4,0.4s-0.1,0.3-0.4,0.3
		c-0.9,0-1.8,0-2.6,0c-0.3,0-0.4-0.1-0.4-0.4C38.5,65.5,38.5,64.8,38.5,64.1z"/>
	<path class="st0" d="M26.7,66.6c0.7-1.6,1.4-3.2,2.1-4.7c0.1-0.2,0.2-0.3,0.4-0.3c0.2,0,0.3,0,0.4,0.2c0.7,1.6,1.3,3.1,2,4.7
		c-0.6,0.2-0.9,0.1-1-0.5c-0.1-0.5-0.4-0.8-1-0.7c-0.2,0-0.3,0-0.5,0c-0.8-0.1-1.4,0-1.5,1C27.5,66.8,27.1,66.6,26.7,66.6z
		 M29.2,62.5c-0.2,0.4-0.3,0.7-0.4,0.9c-0.6,1.4-0.6,1.4,0.9,1.3c0,0,0,0,0.1,0c0.2,0,0.3-0.1,0.2-0.3
		C29.7,63.9,29.5,63.3,29.2,62.5z"/>
	<path class="st0" d="M55.7,65.4c-0.2,0-0.3,0-0.4,0c-0.7-0.1-1.2,0.1-1.3,0.9c0,0.1-0.1,0.2-0.1,0.3c-0.2,0.2-0.5,0.2-0.7,0.1
		s0-0.3,0-0.4c0.6-1.4,1.2-2.8,1.8-4.1c0.1-0.2,0.2-0.4,0.5-0.4s0.4,0.2,0.5,0.4c0.6,1.4,1.2,2.8,1.8,4.2c0.1,0.1,0.2,0.3,0.1,0.4
		c-0.2,0.1-0.5,0.1-0.7-0.1c-0.1,0-0.1-0.1-0.1-0.2C56.9,65.4,56.3,65.3,55.7,65.4z M55.5,62.6c-0.2,0.4-0.3,0.7-0.4,1
		C54.5,65,54.5,65,56,64.9h0.1c0.2,0,0.3-0.1,0.2-0.3C56.1,63.9,55.8,63.3,55.5,62.6z"/>
	<path class="st0" d="M51.1,66.8c-1.2,0-2.1-0.7-2.5-1.7c-0.4-1.1,0-2.3,0.8-3c0.8-0.6,2.1-0.7,2.9-0.2c0.2,0.1,0.4,0.2,0.4,0.4
		s-0.2,0.2-0.3,0.3c-0.2,0.2-0.3,0-0.4-0.1c-0.8-0.6-1.8-0.5-2.4,0.3c-0.7,0.8-0.6,2.1,0.1,2.8c0.6,0.7,1.6,0.7,2.4,0.1
		c0.3-0.2,0.4-0.1,0.6,0.1c0.3,0.3,0,0.4-0.1,0.5C52.1,66.6,51.6,66.8,51.1,66.8z"/>
	<path class="st0" d="M14.8,64.5c0-0.5,0-1.1,0-1.6s-0.2-0.6-0.6-0.6c-0.2,0-0.5,0-0.7,0s-0.3-0.1-0.3-0.3s0.1-0.4,0.3-0.4
		c1.1,0,2.2,0,3.3,0c0.3,0,0.3,0.1,0.3,0.4c0,0.2-0.1,0.3-0.3,0.3c-0.1,0-0.1,0-0.2,0c-1.1,0-1.1,0-1.1,1.1c0,0.9,0,1.9,0,2.8
		c0,0.2,0,0.4-0.3,0.5c-0.4,0-0.4-0.2-0.4-0.5C14.8,65.6,14.8,65.1,14.8,64.5z"/>
	<path class="st0" d="M17.7,64.1c0-0.7,0-1.4,0-2.1c0-0.3,0.1-0.4,0.4-0.4s0.4,0.1,0.4,0.4c0,1.4,0,2.9,0,4.3c0,0.3-0.1,0.4-0.4,0.4
		s-0.4-0.1-0.4-0.4C17.8,65.6,17.7,64.8,17.7,64.1z"/>
	<path class="st0" d="M47.7,64.1c0,0.7,0,1.4,0,2.1c0,0.3,0,0.5-0.4,0.5c-0.3,0-0.4-0.1-0.4-0.4c0-1.4,0-2.8,0-4.2
		c0-0.3,0-0.4,0.4-0.4c0.3,0,0.4,0.1,0.4,0.4C47.6,62.7,47.7,63.4,47.7,64.1z"/>
	<path class="st4" d="M46.2,34.9C46.2,35,46.2,35,46.2,34.9C46.3,35,46.2,35,46.2,34.9C46.1,35,46.1,35,46.2,34.9
		C46.1,35,46.1,35,46.2,34.9z"/>
</g>
</svg>
