<?xml version="1.0" encoding="utf-8"?>
<!-- Generator: Adobe Illustrator 26.5.0, SVG Export Plug-In . SVG Version: 6.00 Build 0)  -->
<svg version="1.1" id="Capa_1" xmlns="http://www.w3.org/2000/svg" xmlns:xlink="http://www.w3.org/1999/xlink" x="0px" y="0px"
	 viewBox="0 0 63.8 68.4" style="enable-background:new 0 0 63.8 68.4;" xml:space="preserve">
<style type="text/css">
	.st0{fill:#F9C71C;}
	.st1{fill:#313131;}
	.st2{fill:#323232;}
	.st3{fill:#F9C81D;}
	.st4{fill:#F9C91D;}
	.st5{fill:#333333;}
	.st6{fill:#FACC28;}
	.st7{fill:#F9C813;}
	.st8{fill:#292929;}
	.st9{fill:#141414;}
	.st10{fill:#171717;}
	.st11{fill:#F9C500;}
	.st12{fill:#1C1C1C;}
</style>
<g>
	<path class="st0" d="M8.1,37.4c-0.5-0.8-0.9-1.6-1.4-2.4c-0.1-0.1,0-0.4-0.3-0.3c0,0,0,0,0,0c0,0,0,0.1,0.1,0.1
		c0.1,1.1,0,2.2,0,3.3c0,0-0.1,0.1-0.1,0.1c0,0-0.1,0.1-0.1,0.1c-0.7,0-1.3,0-2,0c0-2.8,0-5.5,0-8.3c0.7,0,1.3,0,2,0
		c0.1,0.1,0.2,0.1,0.3,0.1l0,0c0,0,0.1,0.1,0.1,0.1l0,0c0,0.1,0,0.2,0.1,0.3l0,0c0,0.1,0,0.2,0.1,0.3l0,0c0,0.1,0,0.2,0.1,0.3l0,0
		c0,0.1,0,0.2,0.2,0.3C7.7,32.1,8,33,8.6,33.8c0.3-0.1,0.2-0.4,0.2-0.6c0-1,0-2,0-3c0.8,0,1.4-0.1,2.1,0c0,2.7,0,5.4,0,8.2
		c-0.7,0-1.3,0-2,0c-0.1-0.1-0.2-0.1-0.3-0.1c0,0-0.1-0.1-0.1-0.1c0-0.1,0-0.2-0.1-0.3l0,0c0-0.1,0-0.2-0.1-0.3l0,0
		C8.3,37.5,8.3,37.4,8.1,37.4z"/>
	<path class="st1" d="M29.8,30c2.3-0.1,4.1,1.4,4.3,3.6c0.2,2.7-1.2,4.5-3.7,4.8c0-0.1-0.1-0.1-0.1,0c-1.1,0-2.1,0.1-3.2,0
		c0,0-0.1-0.1-0.1-0.1c0-2.7,0-5.5,0-8.2c0.2,0,0.3,0,0.5,0C28.3,30.3,29,30.3,29.8,30z M29.4,36.2c0.8,0.1,1.4,0,1.8-0.7
		c0.5-0.9,0.5-1.8,0-2.7c-0.4-0.7-1.1-0.7-1.8-0.6C29.4,33.6,29.4,34.9,29.4,36.2z"/>
	<path class="st2" d="M42,38.4c-0.7,0-1.4,0-2.2,0c0-0.1-0.1-0.1-0.1,0c-0.4-0.1-0.3-0.4-0.4-0.6c-0.1-0.2-0.2-0.5-0.2-0.7
		c-0.7,0-1.5,0-2.2,0c-0.3,0.4-0.3,0.9-0.5,1.3c-0.1,0-0.1,0.1-0.2,0.1c-0.8,0-1.5,0-2.3,0c0-0.1-0.1-0.1-0.1,0
		c-0.3-0.1-0.1-0.3,0-0.4c0.8-2.5,1.7-5,2.5-7.4c0.1-0.4,0.3-0.5,0.7-0.5c0.7,0,1.3,0,2,0c0.3,0,0.5,0.1,0.6,0.4
		c0.9,2.6,1.8,5.2,2.6,7.9C42.2,38.3,42.1,38.3,42,38.4z M38.1,33.1c0,0-0.1,0-0.1,0c-0.2,0.7-0.4,1.4-0.6,2.1c0.5,0,0.9,0,1.3,0
		C38.5,34.5,38.3,33.8,38.1,33.1z"/>
	<path class="st3" d="M19.8,38.4c-0.8,0-1.5,0-2.3,0c0-0.1-0.1-0.1-0.1,0c-0.4-0.2-0.3-0.5-0.4-0.8c-0.1-0.4-0.2-0.6-0.7-0.5
		c-0.6,0-1.2,0-1.7,0c-0.3,0.4-0.2,1-0.6,1.3c-0.1,0-0.1,0.1-0.2,0.1c-0.8,0-1.5,0-2.3,0c0,0-0.1-0.1-0.1-0.1c0.4-1.6,1-3.1,1.5-4.7
		c0.3-1,0.7-2,1-3c0.1-0.2,0.1-0.5,0.4-0.5c0,0.1,0.1,0.1,0.1,0c0.8,0,1.6,0,2.4,0c0,0.1,0.1,0.1,0.1,0c0.3,0.1,0.3,0.4,0.4,0.7
		c0.8,2.2,1.5,4.5,2.3,6.7c0.1,0.2,0.1,0.3,0.2,0.4l0,0c0,0.1,0,0.3,0,0.4C19.9,38.3,19.8,38.3,19.8,38.4z M16.3,35.2
		c-0.1-0.8-0.4-1.4-0.7-2.1c-0.2,0.7-0.4,1.4-0.6,2.1C15.5,35.2,15.9,35.2,16.3,35.2z"/>
	<path class="st4" d="M19.9,37.9c0-0.7,0.4-1.2,0.7-1.8c0.1-0.2,0.3-0.3,0.6-0.2c0.3,0.1,0.8,0.2,1,0.4c0.3,0.3,0.5,0.1,0.8-0.1
		c0.4-0.2,0.3-0.5,0-0.7c-0.5-0.3-1.1-0.5-1.7-0.8c-1.8-0.9-2-3.3-0.4-4.4c1-0.7,2.1-0.7,3.2-0.4c0.1,0,0.1,0,0.2,0.1
		c1.6,0.5,1.8,0.9,0.8,2.4c-0.2,0.3-0.3,0.3-0.6,0.2c-0.4-0.2-0.8-0.3-1.2-0.5c-0.3-0.1-0.6-0.1-0.8,0.2c-0.2,0.4,0.2,0.4,0.4,0.6
		c0.5,0.2,1,0.4,1.5,0.7c1.1,0.6,1.6,1.6,1.4,2.7c-0.3,1.2-0.8,1.8-2.2,2.1c-1.2,0.2-2.2,0-3.3-0.5C20.2,37.9,20.1,37.8,19.9,37.9
		L19.9,37.9z"/>
	<path class="st5" d="M54.5,38.4c-0.6,0-1.3,0-1.9,0c0-0.1-0.1-0.1-0.2-0.1c-0.1-0.8,0-1.6,0-2.3c0-0.6-0.1-1.1-0.4-1.6
		c-0.7-1.1-1.3-2.3-1.9-3.5c-0.1-0.2-0.2-0.3-0.2-0.5c0-0.1,0-0.2,0-0.4c0.8,0,1.5,0,2.3,0c0.3,0,0.5,0.2,0.6,0.5
		c0.3,0.6,0.6,1.2,0.9,1.9c0.3-0.7,0.6-1.3,0.9-1.9c0.1-0.3,0.3-0.4,0.6-0.4c0.7,0,1.5,0,2.2,0c0,0.1,0,0.2,0.1,0.3
		c-0.6,1.2-1.2,2.4-1.9,3.5c-0.6,1-0.7,2-0.7,3.1c0,0.4,0,0.7,0,1.1c0,0.2,0,0.4-0.2,0.4C54.6,38.3,54.6,38.3,54.5,38.4z"/>
	<path class="st1" d="M46.1,38.4C45.9,38.3,46,38.1,46,38c0-2.5,0-5.1,0-7.6c0-0.1,0-0.2,0-0.3c0.7,0,1.5,0,2.2,0
		c0.1,0,0.1,0.1,0.2,0.1c0.1,0.7,0,1.5,0.1,2.2c0,1.3,0,2.5,0,3.9c0.7,0,1.4,0,2.2,0c0,0.1,0.1,0.1,0.1,0c0.3,0.2,0.1,0.5,0.1,0.7
		c-0.1,0.4,0,0.9-0.2,1.3c-0.1,0.1-0.1,0.1-0.2,0.2c-1.4,0.1-2.9,0.1-4.3,0C46.2,38.3,46.1,38.3,46.1,38.4z"/>
	<path class="st2" d="M42.7,30.1c0.7-0.1,1.4-0.1,2.2,0c0.1,0,0.1,0.1,0.2,0.1c0.1,0.1,0.1,0.2,0.1,0.4c0,2.5,0,4.9,0,7.4
		c0,0.1,0,0.3-0.1,0.3c-0.1,0-0.1,0.1-0.2,0.1c-0.7,0-1.3,0-2,0c0-0.1-0.1-0.1-0.2-0.1c-0.1-1,0-2,0-3.1c0-1.7,0-3.3,0-5
		C42.6,30.1,42.6,30.1,42.7,30.1z"/>
	<path class="st6" d="M11,38.4c0-2.7,0-5.4,0-8.2c-0.7-0.1-1.4-0.1-2.1,0c0,1,0,2,0,3c0,0.2,0.2,0.5-0.2,0.6c0-1.2,0-2.5,0-3.8
		c0.8-0.1,1.5-0.1,2.3,0c0.2,0,0.3,0.1,0.3,0.3c0,0.2,0,0.3,0,0.5c0,2.3,0,4.6,0,6.9C11.2,37.9,11.3,38.2,11,38.4z"/>
	<path class="st4" d="M57.8,37.9c0-0.1,0-0.2,0-0.2c0.1,0,0.1-0.1,0-0.1c0-0.1,0-0.2,0-0.3c0-0.1,0.1-0.1,0.1-0.2
		c0.3-0.4,1-0.6,1.4-0.4c0.4,0.2,0.6,0.5,0.6,0.9c0,0.5-0.2,0.8-0.6,0.9c-0.5,0.1-1,0.2-1.3-0.4C57.9,38,57.9,37.9,57.8,37.9z"/>
	<path class="st7" d="M4.1,30c0,2.8,0,5.5,0,8.3c-0.3-0.1-0.2-0.4-0.2-0.6c0-2.4,0-4.8,0-7.2C3.9,30.4,3.8,30.2,4.1,30z"/>
	<path class="st8" d="M27,30c0,2.7,0,5.5,0,8.2c0,0,0,0.1,0,0.1c-0.3-0.1-0.2-0.3-0.2-0.5c0-2.4,0-4.9,0-7.3
		C26.8,30.3,26.7,30.1,27,30z"/>
	<path class="st6" d="M8.3,37.6c0.1,0,0.1,0.1,0.1,0.3C8.3,37.8,8.3,37.7,8.3,37.6z"/>
	<path class="st6" d="M8.1,37.4c0.1,0,0.2,0.1,0.2,0.3C8.2,37.6,8.2,37.5,8.1,37.4z"/>
	<path class="st6" d="M8.4,37.9c0.1,0,0.1,0.1,0.1,0.3C8.5,38.1,8.4,38,8.4,37.9z"/>
	<path class="st7" d="M6.2,38.4c0,0,0.1-0.1,0.1-0.1l0,0l0,0C6.4,38.4,6.3,38.4,6.2,38.4z"/>
	<path class="st6" d="M8.7,38.3c0.1,0,0.2,0,0.3,0.1C8.8,38.4,8.7,38.4,8.7,38.3z"/>
	<path class="st9" d="M42,38.4c0-0.1,0.1-0.1,0.2-0.1C42.3,38.4,42.1,38.4,42,38.4z"/>
	<path class="st9" d="M42.6,38.3c0.1,0,0.2,0,0.2,0.1C42.7,38.4,42.6,38.4,42.6,38.3z"/>
	<path class="st10" d="M52.4,38.3c0.1,0,0.2,0,0.2,0.1C52.5,38.4,52.4,38.4,52.4,38.3z"/>
	<path class="st11" d="M58,37.1c0,0.1-0.1,0.1-0.1,0.2C57.9,37.2,57.9,37.1,58,37.1z"/>
	<path class="st11" d="M57.8,37.5c0.1,0,0.1,0.1,0,0.1C57.8,37.6,57.8,37.5,57.8,37.5z"/>
	<path class="st9" d="M50.8,36.3c0,0.1-0.1,0.1-0.1,0C50.7,36.2,50.7,36.2,50.8,36.3z"/>
	<path class="st11" d="M57.8,37.9c0,0.1,0.1,0.1,0.1,0.2C57.9,38,57.9,37.9,57.8,37.9z"/>
	<path class="st11" d="M6.4,38.3L6.4,38.3L6.4,38.3c-0.1,0,0-0.1,0-0.1C6.4,38.2,6.4,38.2,6.4,38.3z"/>
	<path class="st11" d="M6.4,34.8C6.4,34.8,6.4,34.8,6.4,34.8c-0.1-0.1,0-0.1,0-0.1C6.4,34.8,6.4,34.8,6.4,34.8z"/>
	<path class="st11" d="M11.4,38.2c0,0,0.1,0.1,0.1,0.1C11.5,38.4,11.4,38.4,11.4,38.2z"/>
	<path class="st11" d="M13.9,38.4c0.1,0,0.1-0.1,0.2-0.1C14,38.3,14,38.4,13.9,38.4z"/>
	<path class="st11" d="M17.4,38.4c0-0.1,0.1-0.1,0.1,0L17.4,38.4L17.4,38.4z"/>
	<path class="st11" d="M19.8,38.4c0,0,0.1-0.1,0.1-0.1C19.9,38.4,19.9,38.4,19.8,38.4z"/>
	<path class="st10" d="M27,38.4C27,38.3,27,38.3,27,38.4c0-0.1,0.1,0,0.1,0C27.1,38.4,27.1,38.4,27,38.4z"/>
	<path class="st10" d="M30.3,38.4c0-0.1,0.1-0.1,0.1,0L30.3,38.4L30.3,38.4z"/>
	<path class="st10" d="M33.8,38.4c0-0.1,0.1-0.1,0.1,0C33.9,38.4,33.9,38.4,33.8,38.4z"/>
	<path class="st10" d="M36.2,38.4c0.1,0,0.1-0.1,0.2-0.1C36.4,38.3,36.3,38.4,36.2,38.4z"/>
	<path class="st9" d="M39.8,38.4c0-0.1,0.1-0.1,0.1,0C39.9,38.4,39.8,38.4,39.8,38.4z"/>
	<path class="st9" d="M44.8,38.4c0.1,0,0.1-0.1,0.2-0.1C45,38.3,44.9,38.4,44.8,38.4z"/>
	<path class="st12" d="M46.1,38.4c0.1-0.1,0.1-0.1,0.1,0C46.2,38.4,46.1,38.4,46.1,38.4z"/>
	<path class="st12" d="M50.5,38.4c0.1-0.1,0.1-0.1,0.2-0.2C50.7,38.3,50.6,38.4,50.5,38.4z"/>
	<path class="st10" d="M54.5,38.4c0-0.1,0.1-0.1,0.1,0C54.6,38.4,54.6,38.4,54.5,38.4z"/>
</g>
</svg>
