<?xml version="1.0" encoding="utf-8"?>
<!-- Generator: Adobe Illustrator 26.5.0, SVG Export Plug-In . SVG Version: 6.00 Build 0)  -->
<svg version="1.1" id="Capa_1" xmlns="http://www.w3.org/2000/svg" xmlns:xlink="http://www.w3.org/1999/xlink" x="0px" y="0px"
	 viewBox="0 0 63.8 68.4" style="enable-background:new 0 0 63.8 68.4;" xml:space="preserve">
<style type="text/css">
	.st0{fill:#2299EF;}
	.st1{fill:#FDFEFE;}
</style>
<g>
	<path class="st0" d="M31.9,4.2c16.6,0,30,13.5,30,30c0,16.6-13.5,30-30.1,30c-16.6-0.1-30-13.5-29.9-30C2,17.6,15.4,4.2,31.9,4.2z
		 M31.9,8.8c-14,0-25.4,11.4-25.4,25.4c0,14,11.4,25.3,25.3,25.4c14,0,25.4-11.3,25.4-25.4C57.3,20.2,45.9,8.8,31.9,8.8z"/>
	<path class="st1" d="M31.9,8.8c14,0,25.4,11.4,25.4,25.4c0,14-11.4,25.4-25.4,25.4c-14,0-25.3-11.4-25.3-25.4
		C6.5,20.2,17.9,8.8,31.9,8.8z M31.9,13.4c-11.5,0-20.8,9.3-20.8,20.7c0,11.5,9.3,20.8,20.7,20.8c11.5,0,20.8-9.3,20.8-20.7
		C52.7,22.8,43.4,13.5,31.9,13.4z"/>
	<path class="st0" d="M31.9,13.4c11.5,0,20.8,9.3,20.7,20.8c0,11.5-9.3,20.8-20.8,20.7c-11.5,0-20.8-9.3-20.7-20.8
		C11.1,22.7,20.5,13.4,31.9,13.4z M15.8,34.2c0,8.9,7.2,16.1,16.1,16.2c8.9,0,16.2-7.2,16.2-16.1c0-8.9-7.2-16.1-16.1-16.2
		C23,18,15.8,25.3,15.8,34.2z"/>
	<path class="st1" d="M15.8,34.2C15.8,25.3,23,18,32,18.1c8.9,0,16.1,7.3,16.1,16.2c0,8.9-7.3,16.1-16.2,16.1
		C23,50.3,15.7,43.1,15.8,34.2z M32,22.7c-6.4,0-11.6,5.1-11.6,11.5c0,6.3,5.1,11.5,11.4,11.6c6.4,0,11.6-5.1,11.6-11.5
		C43.5,27.9,38.3,22.7,32,22.7z"/>
	<path class="st0" d="M32,22.7c6.4,0,11.5,5.2,11.5,11.6c0,6.3-5.2,11.5-11.6,11.5c-6.3,0-11.5-5.2-11.4-11.6
		C20.4,27.8,25.6,22.7,32,22.7z M31.9,27.3c-3.8,0-6.9,3.1-6.9,6.9c0,3.8,3.1,6.9,6.9,6.9c3.8,0,6.9-3.1,6.9-6.9
		C38.8,30.4,35.7,27.3,31.9,27.3z"/>
	<path class="st1" d="M31.9,27.3c3.8,0,6.9,3.1,6.9,6.9c0,3.8-3.1,6.9-6.9,6.9c-3.8,0-6.9-3.1-6.9-6.9C25,30.4,28.1,27.3,31.9,27.3z
		"/>
</g>
</svg>
