<?xml version="1.0" encoding="UTF-8"?>
<svg id="Layer_1" data-name="Layer 1" xmlns="http://www.w3.org/2000/svg" version="1.1" viewBox="0 0 512 512">
  <defs>
    <style>
      .cls-1 {
        fill: #1b1b1f;
        fill-rule: evenodd;
        stroke-width: 0px;
      }
    </style>
  </defs>
  <path class="cls-1" d="M427.1,121.6l-143.4-85.1c-17-10.1-38.1-10.1-55,0L85.3,121.6c-17.3,10.3-27.9,29.1-27.9,49.3v170.2c-.1,20.1,10.4,38.9,27.6,49.3l143.4,85.1c17,10.1,38.1,10.1,55,0l143.4-85.1c17.2-10.4,27.7-29.1,27.6-49.3v-170.2c.2-20.1-10.2-38.8-27.4-49.3h0ZM316.1,387.4v12.2c0,1.5-.8,2.9-2.1,3.8l-7.3,4.2c-1.1.6-2.1,0-2.1-1.6v-12c-5.1,2.5-11,3.1-16.5,1.6-.9-.6-1.2-1.7-.8-2.8l2.6-11.1c.2-.9.7-1.8,1.4-2.4.2-.2.4-.4.7-.5.4-.1.8-.1,1.1,0,5.1,1.4,10.5.7,15-1.9,6.6-3.2,10.9-9.8,11.2-17.2,0-6.2-3.4-8.8-11.6-8.9-10.4,0-19.9-2-20.3-17.4.2-13.3,6.4-25.8,16.8-34v-12.4c0-1.4.8-2.8,2.1-3.8l7-4.5c1.1-.6,2.1,0,2.1,1.6v12.4c4.3-2,9.1-2.5,13.7-1.6,1,.6,1.4,1.8.9,2.8l-2.5,11c-.2.9-.6,1.6-1.2,2.2-.2.2-.4.4-.7.6s-.7.1-1,0c-4.5-1-9.2-.2-13.2,2.2-5.9,2.5-9.8,8.3-10,14.7,0,5.6,3,7.3,12.9,7.5,13.3,0,19,6,19.1,19.3-.3,13.9-6.6,27.1-17.4,35.9h0ZM391.2,366.8c.2,1-.3,2.1-1.1,2.8l-36.1,22c-.3.3-.9.3-1.2,0s-.6-.7-.5-1.1v-9.4c0-1,.7-1.9,1.6-2.3l35.7-21.4c.3-.3.9-.3,1.2,0s.6.7.5,1.1v8.3h-.1ZM416.2,157.5l-135.7,83.8c-16.9,10-29.4,21-29.4,41.3v167.1c0,12.2,5,19.9,12.5,22.4-2.5.5-5,.7-7.5.8-8,0-15.8-2.2-22.6-6.3l-143.4-85.1c-14.3-8.6-22.8-23.9-22.7-40.5v-170.2c0-16.6,8.4-31.9,22.7-40.5L233.6,45.3c13.9-8.2,31.2-8.2,45.1,0l143.4,85.1c11.8,7.2,19.9,19.2,22,32.6-4.7-10.1-15.4-12.8-27.8-5.6h0v.2Z"/>
</svg>