<?xml version="1.0" encoding="utf-8"?>
<!-- Generator: Adobe Illustrator 26.5.0, SVG Export Plug-In . SVG Version: 6.00 Build 0)  -->
<svg version="1.1" id="Capa_1" xmlns="http://www.w3.org/2000/svg" xmlns:xlink="http://www.w3.org/1999/xlink" x="0px" y="0px"
	 viewBox="0 0 63.8 68.4" style="enable-background:new 0 0 63.8 68.4;" xml:space="preserve">
<style type="text/css">
	.st0{fill-rule:evenodd;clip-rule:evenodd;fill:#1572B6;}
	.st1{fill-rule:evenodd;clip-rule:evenodd;fill:#33A9DC;}
	.st2{fill-rule:evenodd;clip-rule:evenodd;fill:#EBEBEB;}
	.st3{fill-rule:evenodd;clip-rule:evenodd;fill:#FFFFFF;}
</style>
<g id="A">
	<g>
		<path class="st0" d="M61.9,2l-5,57.5l-25,7.5l-25-7.5L1.9,2H61.9"/>
		<path class="st1" d="M53.5,40.5l-0.7,7.7l-0.7,7.7L47,57.4L31.9,62V7h24.6L56,12l-0.7,7.5L54.7,27L54,34.5l-0.4,5L53.5,40.5z"/>
		<path class="st2" d="M31.9,54.5V47l-5.7-1.7l-2.6-0.8l-0.4-5h-8l0.2,2.5l0.7,7.7l8.2,2.5l2.6,0.8L31.9,54.5z M12.7,12h8h2.5h8.6
			v7.5h-8h-2.5h-8L12.7,12z"/>
		<path class="st3" d="M31.9,54.5l7.6-2.3l8.2-2.5l0.7-7.7l0.2-2.5l0.4-5l0.7-7.5l0.7-7.5L51,12h-8H31.9v7.5h10.5L41.7,27h-9.8v7.5
			H41l-0.4,5l-0.4,5L31.9,47V54.5z"/>
		<path class="st2" d="M31.9,27h-7.3l0.7,7.5H32V27H31.9z"/>
	</g>
</g>
</svg>
