<?xml version="1.0" encoding="UTF-8"?>
<svg id="Layer_1" data-name="Layer 1" xmlns="http://www.w3.org/2000/svg" version="1.1" viewBox="0 0 512 512">
  <defs>
    <style>
      .cls-1 {
        fill: #a259ff;
      }

      .cls-1, .cls-2, .cls-3, .cls-4, .cls-5, .cls-6 {
        stroke-width: 0px;
      }

      .cls-2 {
        fill: #1abcfe;
      }

      .cls-3 {
        fill: #f24e1e;
      }

      .cls-4 {
        fill: #0acf83;
      }

      .cls-5 {
        fill: #ff7262;
      }

      .cls-6 {
        fill: #333;
      }
    </style>
  </defs>
  <path class="cls-6" d="M29,256c0-125.4,101.6-227,227-227s227,101.6,227,227-101.6,227-227,227S29,381.4,29,256Z"/>
  <path class="cls-4" d="M210.6,392.2c25.1,0,45.4-20.3,45.4-45.4v-45.4h-45.4c-25.1,0-45.4,20.3-45.4,45.4s20.3,45.4,45.4,45.4Z"/>
  <path class="cls-1" d="M165.2,256c0-25.1,20.3-45.4,45.4-45.4h45.4v90.8h-45.4c-25.1,0-45.4-20.3-45.4-45.4Z"/>
  <path class="cls-3" d="M165.2,165.2c0-25.1,20.3-45.4,45.4-45.4h45.4v90.8h-45.4c-25.1,0-45.4-20.3-45.4-45.4Z"/>
  <path class="cls-5" d="M256,119.8h45.4c25.1,0,45.4,20.3,45.4,45.4s-20.3,45.4-45.4,45.4h-45.4v-90.8Z"/>
  <path class="cls-2" d="M346.8,256c0,25.1-20.3,45.4-45.4,45.4s-45.4-20.3-45.4-45.4,20.3-45.4,45.4-45.4,45.4,20.3,45.4,45.4Z"/>
</svg>