<?xml version="1.0" encoding="UTF-8"?>
<svg id="Layer_1" data-name="Layer 1" xmlns="http://www.w3.org/2000/svg" version="1.1" viewBox="0 0 512 512">
  <defs>
    <style>
      .cls-1 {
        fill: #3587af;
      }

      .cls-1, .cls-2 {
        stroke-width: 0px;
      }

      .cls-2 {
        fill: #191719;
      }
    </style>
  </defs>
  <rect class="cls-2" y="0" width="512" height="512" rx="110" ry="110"/>
  <g>
    <circle class="cls-1" cx="256" cy="256" r="37"/>
    <path class="cls-1" d="M396.4,195c-7.1-2.6-14.6-5.2-22.4-7.5,1.9-7.8,3.6-15.6,4.9-23,6.8-42.8-.6-73-21.4-84.6-6.2-3.6-13-5.2-20.8-5.2-22.7,0-51.6,16.9-80.7,45.1-29.2-28.2-58-45.1-80.7-45.1s-14.6,1.6-20.8,5.2c-20.8,12-28.2,42.2-21.4,84.6,1.3,7.5,2.9,15.2,4.9,23-7.8,2.3-15.2,4.5-22.4,7.5-40.5,15.6-62.6,37-62.6,61s22.4,45.4,62.6,61c7.1,2.6,14.6,5.2,22.4,7.5-1.9,7.8-3.6,15.6-4.9,23-6.8,42.8.6,73,21.4,84.6,6.2,3.6,13,5.2,20.8,5.2,23,0,51.9-16.9,80.7-45.1,29.2,28.2,58,45.1,80.7,45.1s14.6-1.6,20.8-5.2c20.8-12,28.2-42.2,21.4-84.6-1.3-7.5-2.9-15.2-4.9-23,7.8-2.3,15.2-4.5,22.4-7.5,40.5-15.6,62.6-37,62.6-61s-22.1-45.4-62.6-61ZM348.4,96.1c13.3,7.8,17.8,31.8,12.3,65.8-1,6.8-2.6,13.9-4.5,21.4-16.9-3.9-34.7-6.5-53.5-8.1-11-15.6-22.4-29.5-33.7-42.2,24-23.7,48.3-39.9,68.1-39.9s8.1,1,11.3,2.9ZM312.1,288.4c-5.8,10.4-12.6,20.8-19.8,31.1-12,1-24,1.3-36.3,1.3s-24.6-.3-36.3-1.3c-7.1-10.4-13.6-20.8-19.5-31.1-6.2-10.7-12-21.7-17.2-32.4,5.2-10.7,11-21.7,17.2-32.4,5.8-10.4,12.6-20.8,19.8-31.1,12-1,24-1.3,36.3-1.3s24.6.3,36.3,1.3c7.1,10.4,13.6,20.8,19.5,31.1,6.2,10.7,12,21.7,17.2,32.4-5.5,10.7-11,21.4-17.2,32.4ZM339,277.7c4.9,11.3,8.8,22.4,12.3,33.4-11,2.6-22.7,4.5-35,6.2,3.9-6.2,8.1-12.6,11.7-19.5,3.9-6.8,7.5-13.6,11-20.1ZM256,365.6c-7.8-8.4-15.2-17.5-22.4-26.9,7.5.3,14.9.6,22.4.6s14.9-.3,22.4-.6c-7.1,9.4-14.6,18.5-22.4,26.9ZM195.7,317c-12.3-1.6-24-3.6-35-6.2,3.6-10.7,7.5-22.1,12.3-33.4,3.6,6.5,7.1,13.3,11,19.8,3.9,7.1,7.8,13.3,11.7,19.8ZM173,234.3c-4.9-11.3-8.8-22.4-12.3-33.4,11-2.6,22.7-4.5,35-6.2-3.9,6.2-8.1,12.6-11.7,19.5-3.9,6.8-7.5,13.6-11,20.1ZM256,146.4c7.8,8.4,15.2,17.5,22.4,26.9-7.5-.3-14.9-.6-22.4-.6s-14.9.3-22.4.6c7.1-9.4,14.6-18.5,22.4-26.9ZM328,214.5l-11.7-19.5c12.3,1.6,24,3.6,35,6.2-3.6,10.7-7.5,22.1-12.3,33.4-3.6-6.8-7.1-13.6-11-20.1ZM151.3,162c-5.5-34-1-58,12.3-65.8,3.2-1.9,7.1-2.9,11.3-2.9,19.5,0,43.8,15.9,68.1,39.9-11.3,12.3-22.7,26.6-33.7,42.2-18.8,1.6-36.6,4.5-53.5,8.1-1.9-7.5-3.2-14.6-4.5-21.4ZM71.2,256c0-15.2,18.5-31.5,50.9-43.5,6.5-2.6,13.6-4.9,20.8-6.8,5.2,16.2,11.7,33.4,19.5,50.6-7.8,17.2-14.6,34-19.5,50.3-44.8-13-71.7-32.4-71.7-50.6ZM163.6,415.9c-13.3-7.8-17.8-31.8-12.3-65.8,1-6.8,2.6-13.9,4.5-21.4,16.9,3.9,34.7,6.5,53.5,8.1,11,15.6,22.4,29.5,33.7,42.2-24,23.7-48.3,39.9-68.1,39.9s-8.1-1-11.3-2.9ZM360.7,350c5.5,34,1,58-12.3,65.8-3.2,1.9-7.1,2.9-11.3,2.9-19.5,0-43.8-15.9-68.1-39.9,11.3-12.3,22.7-26.6,33.7-42.2,18.8-1.6,36.6-4.5,53.5-8.1,1.9,7.5,3.2,14.6,4.5,21.4ZM389.9,299.5c-6.5,2.6-13.6,4.9-20.8,6.8-5.2-16.2-11.7-33.4-19.5-50.6,7.8-17.2,14.6-34,19.5-50.3,44.8,13,71.7,32.4,71.7,50.6s-18.8,31.5-50.9,43.5Z"/>
  </g>
</svg>