<?xml version="1.0" encoding="UTF-8"?>
<svg id="Layer_1" data-name="Layer 1" xmlns="http://www.w3.org/2000/svg" version="1.1" viewBox="0 0 512 512">
  <defs>
    <style>
      .cls-1 {
        fill: #c3f2f4;
        stroke-width: 0px;
      }
    </style>
  </defs>
  <path class="cls-1" d="M139.7,210c15.5-62,54.2-93,116.3-93,93,0,104.6,69.8,151.1,81.4,31,7.8,58.1-3.9,81.4-34.9-15.5,62-54.3,93-116.3,93-93,0-104.6-69.8-151.1-81.4-31-7.7-58.1,3.9-81.4,34.9ZM23.5,349.5c15.5-62,54.3-93,116.3-93,93,0,104.6,69.8,151.1,81.4,31,7.8,58.1-3.9,81.4-34.9-15.5,62-54.2,93-116.3,93-93,0-104.6-69.7-151.1-81.4-31-7.8-58.1,3.9-81.4,34.9Z"/>
</svg>